<svg width="630" height="296" viewBox="0 0 630 296" fill="none" xmlns="http://www.w3.org/2000/svg">
<g clip-path="url(#clip0_95_59)">
<path d="M314.5 -1.00021L166 147.5L314.5 296L463 147.5L314.5 -1.00021Z" fill="#B52222"/>
<path d="M217.316 147.532C217.518 148.116 217.683 148.725 217.809 149.361C217.935 149.996 217.999 150.656 217.999 151.342C217.999 152.664 217.759 153.959 217.278 155.229C216.798 156.474 216.115 157.591 215.231 158.582C214.371 159.573 213.322 160.373 212.083 160.983C210.87 161.592 209.505 161.897 207.988 161.897H194.526V147.532V143.188H191.53V140.787H194.526V133.166H207.988C208.62 133.166 209.227 133.306 209.808 133.585C210.389 133.84 210.895 134.195 211.325 134.652C211.754 135.11 212.096 135.643 212.349 136.253C212.602 136.862 212.728 137.51 212.728 138.196C212.728 139.466 212.336 140.559 211.552 141.473C212.867 142.007 214.017 142.807 215.003 143.874C216.015 144.915 216.785 146.134 217.316 147.532ZM210.453 138.196C210.453 137.384 210.187 136.748 209.656 136.291C209.151 135.808 208.594 135.567 207.988 135.567H196.801V140.787H208.177C208.809 140.787 209.34 140.533 209.77 140.025C210.225 139.492 210.453 138.882 210.453 138.196ZM214.776 147.532C214.119 146.236 213.157 145.195 211.894 144.407C210.63 143.595 209.163 143.188 207.495 143.188H196.801V147.532V159.459H207.988C209.05 159.459 210.048 159.256 210.983 158.849C211.919 158.417 212.728 157.832 213.41 157.096C214.119 156.36 214.674 155.496 215.079 154.505C215.484 153.514 215.686 152.46 215.686 151.342C215.686 149.996 215.382 148.725 214.776 147.532ZM223.074 147.532V143.188H219.926V140.787H223.074V133.166H242.148V135.567H225.311V140.787H242.148V143.188H225.311V147.532V159.459H242.148V161.897H223.074V147.532ZM244.491 133.166H246.767V159.497H263.604V161.897H244.491V133.166ZM265.674 133.166H267.949V159.497H284.786V161.897H265.674V133.166ZM299.826 137.129L298.119 140.787H301.57L299.826 137.129ZM313.819 161.326L311.809 162.393L302.708 143.188H296.944L287.919 162.354L285.871 161.249L294.441 143.188H286.818V140.787H295.541L299.826 131.756L304.111 140.787H312.757V143.188H305.248L313.819 161.326ZM344.453 147.532C344.756 146.948 344.984 146.325 345.136 145.665C345.313 145.004 345.401 144.305 345.401 143.569C345.401 142.273 345.161 141.13 344.681 140.139C344.226 139.123 343.632 138.285 342.898 137.625C342.191 136.939 341.381 136.431 340.471 136.1C339.587 135.745 338.715 135.567 337.855 135.567H330.271V147.532V151.571H337.855C339.296 151.571 340.585 151.202 341.723 150.466C342.886 149.729 343.796 148.751 344.453 147.532ZM346.956 147.532C346.628 148.421 346.173 149.259 345.591 150.047C345.035 150.809 344.365 151.495 343.581 152.104C342.798 152.688 341.926 153.159 340.964 153.514C340.004 153.845 338.968 154.01 337.855 154.01H330.271V161.897H327.995V147.532V133.166H337.855C339.018 133.166 340.181 133.407 341.344 133.89C342.532 134.373 343.594 135.059 344.529 135.948C345.49 136.837 346.261 137.929 346.842 139.225C347.424 140.521 347.714 141.969 347.714 143.569C347.714 144.229 347.652 144.89 347.525 145.55C347.399 146.211 347.209 146.872 346.956 147.532ZM352.313 161.935H350.038V133.281H352.313V161.935ZM364.969 147.532L374.563 135.605H359.092V133.204H379.455L367.965 147.532L358.333 159.497H381.199V161.897H353.402L364.969 147.532ZM393.15 147.532L402.744 135.605H387.273V133.204H407.636L396.146 147.532L386.514 159.497H409.38V161.897H381.584L393.15 147.532ZM424.328 137.129L422.622 140.787H426.072L424.328 137.129ZM438.321 161.326L436.311 162.393L427.21 143.188H421.446L412.421 162.354L410.373 161.249L418.943 143.188H411.321V140.787H420.043L424.328 131.756L428.613 140.787H437.259V143.188H429.751L438.321 161.326Z" fill="white"/>
<path d="M311.433 189.847L287.806 198.259V181.436L311.433 189.847Z" fill="white"/>
<path d="M314.583 189.847L338.209 198.259V181.436L314.583 189.847Z" fill="white"/>
<path d="M313.007 192.735C314.457 192.735 315.633 191.56 315.633 190.11C315.633 188.66 314.457 187.485 313.007 187.485C311.558 187.485 310.382 188.66 310.382 190.11C310.382 191.56 311.558 192.735 313.007 192.735Z" fill="white"/>
<path d="M258.957 115.166C259.028 115.372 259.082 115.585 259.117 115.808C259.162 116.022 259.184 116.254 259.184 116.503C259.184 117.038 259.086 117.533 258.89 117.988C258.703 118.442 258.444 118.835 258.115 119.164C257.794 119.494 257.42 119.753 256.993 119.94C256.574 120.118 256.133 120.207 255.67 120.207H252.209V115.166V113.642H251.1V112.799H252.209V110.125H255.67C256.017 110.125 256.325 110.227 256.592 110.433C256.859 110.628 257.055 110.874 257.18 111.168C257.313 111.462 257.362 111.778 257.327 112.117C257.291 112.447 257.148 112.751 256.899 113.027C257.327 113.196 257.728 113.463 258.102 113.829C258.476 114.185 258.761 114.631 258.957 115.166ZM256.552 111.89C256.552 111.801 256.534 111.703 256.498 111.596C256.463 111.48 256.41 111.377 256.338 111.288C256.266 111.2 256.173 111.123 256.057 111.061C255.951 110.999 255.822 110.968 255.67 110.968H253.011V112.799H255.75C255.972 112.799 256.16 112.711 256.311 112.532C256.472 112.345 256.552 112.131 256.552 111.89ZM258.062 115.166C257.839 114.712 257.509 114.346 257.073 114.07C256.637 113.784 256.111 113.642 255.496 113.642H253.011V115.166V119.351H255.67C256.044 119.351 256.396 119.28 256.725 119.138C257.055 118.986 257.34 118.781 257.581 118.522C257.83 118.264 258.026 117.961 258.169 117.613C258.32 117.266 258.396 116.896 258.396 116.503C258.396 116.04 258.284 115.594 258.062 115.166ZM259.886 110.125H260.675V112.519L265.872 109.938L266.22 110.7L262.438 112.585L268.317 119.846L267.716 120.394L261.677 112.96L260.675 113.455V120.194H259.886V110.125ZM272.701 116.356L268.425 110.74L269.04 110.179L273.142 115.594L276.309 109.991L277.003 110.419L271.378 120.341L270.764 119.793L272.701 116.356ZM277.29 115.166C277.29 114.471 277.415 113.82 277.664 113.214C277.914 112.599 278.252 112.064 278.679 111.609C279.116 111.146 279.624 110.785 280.202 110.526C280.782 110.259 281.401 110.125 282.06 110.125H285.32V110.981H282.06C281.535 110.981 281.031 111.088 280.55 111.302C280.078 111.507 279.655 111.797 279.28 112.171C278.916 112.545 278.626 112.991 278.412 113.508C278.198 114.016 278.091 114.569 278.091 115.166C278.091 115.746 278.194 116.289 278.399 116.798C278.612 117.306 278.898 117.752 279.254 118.135C279.619 118.509 280.042 118.808 280.523 119.031C281.004 119.245 281.517 119.351 282.06 119.351H285.32V120.194H282.06C281.472 120.194 280.889 120.078 280.309 119.846C279.74 119.606 279.232 119.266 278.786 118.83C278.341 118.394 277.981 117.867 277.704 117.252C277.428 116.628 277.29 115.933 277.29 115.166ZM293.864 120.207H293.063L293.076 113.642H288.654L288.627 120.207H287.825L287.838 115.166V113.642H285.874V112.799H287.838V110.152H288.654V112.799H293.076L293.089 110.152H293.891L293.878 112.799H294.96V113.642H293.878L293.864 120.207ZM304.659 115.166C304.659 114.543 304.542 113.968 304.311 113.441C304.088 112.906 303.785 112.452 303.403 112.077C303.028 111.694 302.596 111.395 302.107 111.181C301.616 110.968 301.104 110.861 300.57 110.861C299.964 110.861 299.408 110.986 298.9 111.235C298.401 111.476 297.973 111.797 297.617 112.198C297.26 112.599 296.98 113.058 296.775 113.575C296.579 114.092 296.481 114.623 296.481 115.166C296.481 115.736 296.583 116.281 296.789 116.798C296.993 117.314 297.274 117.774 297.63 118.175C297.995 118.567 298.427 118.879 298.927 119.111C299.425 119.343 299.973 119.458 300.57 119.458C301.131 119.458 301.661 119.347 302.16 119.124C302.658 118.892 303.09 118.585 303.456 118.202C303.821 117.809 304.111 117.354 304.325 116.838C304.547 116.311 304.659 115.755 304.659 115.166ZM305.46 115.166C305.46 115.835 305.34 116.481 305.099 117.105C304.859 117.72 304.52 118.268 304.084 118.75C303.656 119.223 303.139 119.601 302.534 119.886C301.937 120.172 301.282 120.314 300.57 120.314C299.902 120.314 299.269 120.181 298.673 119.913C298.085 119.637 297.567 119.266 297.123 118.803C296.677 118.34 296.325 117.796 296.067 117.172C295.809 116.548 295.68 115.88 295.68 115.166C295.68 114.462 295.809 113.798 296.067 113.174C296.325 112.541 296.672 111.992 297.109 111.529C297.554 111.066 298.071 110.7 298.659 110.433C299.256 110.157 299.892 110.018 300.57 110.018C301.22 110.018 301.839 110.147 302.427 110.406C303.024 110.665 303.545 111.026 303.99 111.489C304.445 111.952 304.801 112.5 305.059 113.134C305.327 113.757 305.46 114.436 305.46 115.166ZM308.236 119.351C308.236 119.423 308.226 119.485 308.209 119.539C308.191 119.592 308.173 119.646 308.155 119.699C308.129 119.744 308.102 119.788 308.075 119.833C308.049 119.868 308.022 119.908 307.995 119.953L307.06 121.29L306.418 120.782L306.94 120.047C306.716 119.878 306.606 119.646 306.606 119.351C306.606 119.111 306.681 118.905 306.833 118.736C306.993 118.567 307.189 118.482 307.421 118.482C307.643 118.482 307.835 118.567 307.995 118.736C308.155 118.905 308.236 119.111 308.236 119.351ZM317.185 120.207H316.383V110.968H313.524V110.125H320.031V110.968H317.185V120.207ZM325.289 111.516L324.687 112.799H325.903L325.289 111.516ZM330.219 120.007L329.511 120.381L326.304 113.642H324.273L321.093 120.368L320.372 119.98L323.391 113.642H320.706V112.799H323.779L325.289 109.63L326.798 112.799H329.845V113.642H327.199L330.219 120.007ZM331.609 120.167H330.794V109.804L335.551 112.719L340.334 109.804V120.167H339.533V111.275L335.551 113.695L331.609 111.275V120.167ZM345.983 110.125H352.703V110.968H346.771V120.207H345.983V110.125ZM363.784 119.325V121.531H362.969V120.154H354.123V121.544H353.308V119.338H354.163L358.493 109.63L362.902 119.325H363.784ZM355.045 119.338L362.033 119.325L358.479 111.596L355.045 119.338ZM365.222 115.166V113.642H364.113V112.799H365.222V110.125H371.943V110.968H366.01V112.799H371.943V113.642H366.01V115.166V119.351H371.943V120.207H365.222V115.166Z" fill="white"/>
</g>
<rect x="297" y="-18.83" width="235" height="235" transform="rotate(-45 297 -18.83)" fill="#D9D9D9"/>
<rect y="-18.83" width="235" height="235" transform="rotate(-45 0 -18.83)" fill="#D9D9D9"/>
<defs>
<clipPath id="clip0_95_59">
<rect width="297" height="297" fill="white" transform="translate(166 -1)"/>
</clipPath>
</defs>
</svg>
