<svg width="630" height="296" viewBox="0 0 630 296" fill="none" xmlns="http://www.w3.org/2000/svg">
<g clip-path="url(#clip0_95_59)">
<path d="M314.5 -1.00021L166 147.5L314.5 296L463 147.5L314.5 -1.00021Z" fill="#B52222"/>
<path d="M217.316 147.532C217.518 148.116 217.683 148.725 217.809 149.361C217.935 149.996 217.999 150.656 217.999 151.342C217.999 152.664 217.759 153.959 217.278 155.229C216.798 156.474 216.115 157.591 215.231 158.582C214.371 159.573 213.322 160.373 212.083 160.983C210.87 161.592 209.505 161.897 207.988 161.897H194.526V147.532V143.188H191.53V140.787H194.526V133.166H207.988C208.62 133.166 209.227 133.306 209.808 133.585C210.389 133.84 210.895 134.195 211.325 134.652C211.754 135.11 212.096 135.643 212.349 136.253C212.602 136.862 212.728 137.51 212.728 138.196C212.728 139.466 212.336 140.559 211.552 141.473C212.867 142.007 214.017 142.807 215.003 143.874C216.015 144.915 216.785 146.134 217.316 147.532ZM210.453 138.196C210.453 137.384 210.187 136.748 209.656 136.291C209.151 135.808 208.594 135.567 207.988 135.567H196.801V140.787H208.177C208.809 140.787 209.34 140.533 209.77 140.025C210.225 139.492 210.453 138.882 210.453 138.196ZM214.776 147.532C214.119 146.236 213.157 145.195 211.894 144.407C210.63 143.595 209.163 143.188 207.495 143.188H196.801V147.532V159.459H207.988C209.05 159.459 210.048 159.256 210.983 158.849C211.919 158.417 212.728 157.832 213.41 157.096C214.119 156.36 214.674 155.496 215.079 154.505C215.484 153.514 215.686 152.46 215.686 151.342C215.686 149.996 215.382 148.725 214.776 147.532ZM223.074 147.532V143.188H219.926V140.787H223.074V133.166H242.148V135.567H225.311V140.787H242.148V143.188H225.311V147.532V159.459H242.148V161.897H223.074V147.532ZM244.491 133.166H246.767V159.497H263.604V161.897H244.491V133.166ZM265.674 133.166H267.949V159.497H284.786V161.897H265.674V133.166ZM299.826 137.129L298.119 140.787H301.57L299.826 137.129ZM313.819 161.326L311.809 162.393L302.708 143.188H296.944L287.919 162.354L285.871 161.249L294.441 143.188H286.818V140.787H295.541L299.826 131.756L304.111 140.787H312.757V143.188H305.248L313.819 161.326ZM344.453 147.532C344.756 146.948 344.984 146.325 345.136 145.665C345.313 145.004 345.401 144.305 345.401 143.569C345.401 142.273 345.161 141.13 344.681 140.139C344.226 139.123 343.632 138.285 342.898 137.625C342.191 136.939 341.381 136.431 340.471 136.1C339.587 135.745 338.715 135.567 337.855 135.567H330.271V147.532V151.571H337.855C339.296 151.571 340.585 151.202 341.723 150.466C342.886 149.729 343.796 148.751 344.453 147.532ZM346.956 147.532C346.628 148.421 346.173 149.259 345.591 150.047C345.035 150.809 344.365 151.495 343.581 152.104C342.798 152.688 341.926 153.159 340.964 153.514C340.004 153.845 338.968 154.01 337.855 154.01H330.271V161.897H327.995V147.532V133.166H337.855C339.018 133.166 340.181 133.407 341.344 133.89C342.532 134.373 343.594 135.059 344.529 135.948C345.49 136.837 346.261 137.929 346.842 139.225C347.424 140.521 347.714 141.969 347.714 143.569C347.714 144.229 347.652 144.89 347.525 145.55C347.399 146.211 347.209 146.872 346.956 147.532ZM352.313 161.935H350.038V133.281H352.313V161.935ZM364.969 147.532L374.563 135.605H359.092V133.204H379.455L367.965 147.532L358.333 159.497H381.199V161.897H353.402L364.969 147.532ZM393.15 147.532L402.744 135.605H387.273V133.204H407.636L396.146 147.532L386.514 159.497H409.38V161.897H381.584L393.15 147.532ZM424.328 137.129L422.622 140.787H426.072L424.328 137.129ZM438.321 161.326L436.311 162.393L427.21 143.188H421.446L412.421 162.354L410.373 161.249L418.943 143.188H411.321V140.787H420.043L424.328 131.756L428.613 140.787H437.259V143.188H429.751L438.321 161.326Z" fill="white"/>
<path d="M311.433 189.847L287.806 198.259V181.436L311.433 189.847Z" fill="white"/>
<path d="M314.583 189.847L338.209 198.259V181.436L314.583 189.847Z" fill="white"/>
<path d="M313.007 192.735C314.457 192.735 315.633 191.56 315.633 190.11C315.633 188.66 314.457 187.485 313.007 187.485C311.558 187.485 310.382 188.66 310.382 190.11C310.382 191.56 311.558 192.735 313.007 192.735Z" fill="white"/>
<mask id="path-6-inside-1_95_59" fill="white">
<path d="M246.272 111.434C246.366 111.71 246.436 111.997 246.482 112.296C246.541 112.584 246.569 112.895 246.569 113.23C246.569 113.948 246.441 114.613 246.185 115.223C245.94 115.834 245.602 116.361 245.172 116.804C244.752 117.246 244.263 117.594 243.704 117.845C243.156 118.085 242.58 118.204 241.975 118.204H237.45V111.434V109.387H236V108.256H237.45V104.664H241.975C242.429 104.664 242.831 104.802 243.18 105.077C243.53 105.34 243.785 105.67 243.949 106.065C244.123 106.46 244.187 106.885 244.141 107.34C244.095 107.783 243.908 108.19 243.582 108.561C244.141 108.788 244.665 109.147 245.154 109.639C245.643 110.117 246.016 110.716 246.272 111.434ZM243.128 107.035C243.128 106.916 243.104 106.783 243.058 106.64C243.012 106.485 242.942 106.346 242.848 106.227C242.755 106.107 242.632 106.005 242.481 105.921C242.342 105.838 242.173 105.796 241.975 105.796H238.498V108.256H242.08C242.37 108.256 242.615 108.137 242.813 107.897C243.023 107.645 243.128 107.358 243.128 107.035ZM245.102 111.434C244.811 110.824 244.379 110.333 243.809 109.962C243.239 109.578 242.551 109.387 241.748 109.387H238.498V111.434V117.055H241.975C242.464 117.055 242.924 116.959 243.355 116.768C243.785 116.564 244.158 116.289 244.473 115.942C244.799 115.594 245.056 115.187 245.242 114.721C245.44 114.254 245.539 113.757 245.539 113.23C245.539 112.608 245.393 112.009 245.102 111.434ZM247.488 104.664H248.518V107.879L255.314 104.413L255.768 105.437L250.824 107.969L258.511 117.719L257.725 118.456L249.829 108.471L248.518 109.136V118.186H247.488V104.664ZM264.243 113.033L258.652 105.49L259.456 104.736L264.819 112.009L268.959 104.485L269.868 105.059L262.513 118.384L261.709 117.648L264.243 113.033ZM270.242 111.434C270.242 110.501 270.406 109.627 270.731 108.813C271.058 107.987 271.5 107.268 272.059 106.658C272.631 106.036 273.294 105.551 274.051 105.203C274.808 104.844 275.618 104.664 276.479 104.664H280.742V105.814H276.479C275.793 105.814 275.134 105.957 274.505 106.245C273.888 106.52 273.334 106.909 272.845 107.412C272.369 107.915 271.989 108.514 271.71 109.208C271.43 109.89 271.29 110.633 271.29 111.434C271.29 112.213 271.425 112.943 271.692 113.625C271.972 114.308 272.345 114.907 272.81 115.421C273.288 115.924 273.841 116.325 274.47 116.624C275.099 116.911 275.769 117.055 276.479 117.055H280.742V118.186H276.479C275.71 118.186 274.948 118.031 274.19 117.719C273.445 117.396 272.782 116.941 272.199 116.355C271.617 115.768 271.146 115.062 270.784 114.236C270.423 113.398 270.242 112.464 270.242 111.434ZM291.914 118.204H290.865L290.883 109.387H285.1L285.065 118.204H284.017L284.035 111.434V109.387H281.467V108.256H284.035V104.7H285.1V108.256H290.883L290.9 104.7H291.949L291.931 108.256H293.346V109.387H291.931L291.914 118.204ZM306.027 111.434C306.027 110.597 305.874 109.825 305.573 109.118C305.281 108.4 304.885 107.789 304.385 107.286C303.895 106.772 303.33 106.37 302.69 106.083C302.049 105.796 301.38 105.652 300.681 105.652C299.889 105.652 299.161 105.82 298.497 106.155C297.845 106.478 297.286 106.909 296.82 107.448C296.353 107.987 295.987 108.604 295.719 109.297C295.462 109.991 295.335 110.705 295.335 111.434C295.335 112.2 295.469 112.931 295.737 113.625C296.004 114.319 296.371 114.936 296.838 115.475C297.314 116.002 297.88 116.42 298.532 116.732C299.184 117.043 299.9 117.199 300.681 117.199C301.415 117.199 302.107 117.049 302.76 116.75C303.411 116.438 303.977 116.025 304.454 115.511C304.931 114.983 305.31 114.373 305.59 113.679C305.881 112.972 306.027 112.224 306.027 111.434ZM307.075 111.434C307.075 112.332 306.918 113.201 306.603 114.038C306.289 114.864 305.846 115.6 305.276 116.247C304.716 116.882 304.04 117.39 303.249 117.773C302.468 118.157 301.612 118.348 300.681 118.348C299.807 118.348 298.98 118.168 298.2 117.809C297.432 117.439 296.755 116.941 296.174 116.319C295.591 115.697 295.131 114.966 294.794 114.128C294.455 113.29 294.287 112.393 294.287 111.434C294.287 110.489 294.455 109.596 294.794 108.759C295.131 107.908 295.585 107.172 296.156 106.55C296.738 105.928 297.414 105.437 298.183 105.077C298.963 104.707 299.795 104.521 300.681 104.521C301.531 104.521 302.341 104.694 303.109 105.042C303.889 105.389 304.57 105.874 305.153 106.496C305.747 107.118 306.213 107.854 306.551 108.705C306.9 109.542 307.075 110.453 307.075 111.434ZM310.704 117.055C310.704 117.151 310.691 117.235 310.669 117.306C310.645 117.378 310.621 117.45 310.599 117.522C310.564 117.582 310.529 117.641 310.494 117.701C310.459 117.749 310.424 117.803 310.389 117.863L309.166 119.659L308.328 118.976L309.009 117.989C308.717 117.762 308.572 117.45 308.572 117.055C308.572 116.732 308.671 116.456 308.869 116.229C309.079 116.002 309.335 115.888 309.638 115.888C309.929 115.888 310.18 116.002 310.389 116.229C310.599 116.456 310.704 116.732 310.704 117.055ZM322.405 118.204H321.357V105.796H317.618V104.664H326.126V105.796H322.405V118.204ZM333 106.532L332.214 108.256H333.804L333 106.532ZM339.447 117.935L338.521 118.438L334.328 109.387H331.673L327.515 118.42L326.571 117.899L330.519 109.387H327.008V108.256H331.026L333 104L334.974 108.256H338.957V109.387H335.498L339.447 117.935ZM341.265 118.15H340.199V104.233L346.418 108.148L352.673 104.233V118.15H351.624V106.209L346.418 109.459L341.265 106.209V118.15ZM360.057 104.664H368.845V105.796H361.088V118.204H360.057V104.664ZM383.332 117.019V119.982H382.267V118.132H370.701V120H369.636V117.037H370.754L376.414 104L382.179 117.019H383.332ZM371.907 117.037L381.044 117.019L376.397 106.64L371.907 117.037ZM385.213 111.434V109.387H383.763V108.256H385.213V104.664H394V105.796H386.243V108.256H394V109.387H386.243V111.434V117.055H394V118.204H385.213V111.434Z"/>
</mask>
<path d="M246.272 111.434C246.366 111.71 246.436 111.997 246.482 112.296C246.541 112.584 246.569 112.895 246.569 113.23C246.569 113.948 246.441 114.613 246.185 115.223C245.94 115.834 245.602 116.361 245.172 116.804C244.752 117.246 244.263 117.594 243.704 117.845C243.156 118.085 242.58 118.204 241.975 118.204H237.45V111.434V109.387H236V108.256H237.45V104.664H241.975C242.429 104.664 242.831 104.802 243.18 105.077C243.53 105.34 243.785 105.67 243.949 106.065C244.123 106.46 244.187 106.885 244.141 107.34C244.095 107.783 243.908 108.19 243.582 108.561C244.141 108.788 244.665 109.147 245.154 109.639C245.643 110.117 246.016 110.716 246.272 111.434ZM243.128 107.035C243.128 106.916 243.104 106.783 243.058 106.64C243.012 106.485 242.942 106.346 242.848 106.227C242.755 106.107 242.632 106.005 242.481 105.921C242.342 105.838 242.173 105.796 241.975 105.796H238.498V108.256H242.08C242.37 108.256 242.615 108.137 242.813 107.897C243.023 107.645 243.128 107.358 243.128 107.035ZM245.102 111.434C244.811 110.824 244.379 110.333 243.809 109.962C243.239 109.578 242.551 109.387 241.748 109.387H238.498V111.434V117.055H241.975C242.464 117.055 242.924 116.959 243.355 116.768C243.785 116.564 244.158 116.289 244.473 115.942C244.799 115.594 245.056 115.187 245.242 114.721C245.44 114.254 245.539 113.757 245.539 113.23C245.539 112.608 245.393 112.009 245.102 111.434ZM247.488 104.664H248.518V107.879L255.314 104.413L255.768 105.437L250.824 107.969L258.511 117.719L257.725 118.456L249.829 108.471L248.518 109.136V118.186H247.488V104.664ZM264.243 113.033L258.652 105.49L259.456 104.736L264.819 112.009L268.959 104.485L269.868 105.059L262.513 118.384L261.709 117.648L264.243 113.033ZM270.242 111.434C270.242 110.501 270.406 109.627 270.731 108.813C271.058 107.987 271.5 107.268 272.059 106.658C272.631 106.036 273.294 105.551 274.051 105.203C274.808 104.844 275.618 104.664 276.479 104.664H280.742V105.814H276.479C275.793 105.814 275.134 105.957 274.505 106.245C273.888 106.52 273.334 106.909 272.845 107.412C272.369 107.915 271.989 108.514 271.71 109.208C271.43 109.89 271.29 110.633 271.29 111.434C271.29 112.213 271.425 112.943 271.692 113.625C271.972 114.308 272.345 114.907 272.81 115.421C273.288 115.924 273.841 116.325 274.47 116.624C275.099 116.911 275.769 117.055 276.479 117.055H280.742V118.186H276.479C275.71 118.186 274.948 118.031 274.19 117.719C273.445 117.396 272.782 116.941 272.199 116.355C271.617 115.768 271.146 115.062 270.784 114.236C270.423 113.398 270.242 112.464 270.242 111.434ZM291.914 118.204H290.865L290.883 109.387H285.1L285.065 118.204H284.017L284.035 111.434V109.387H281.467V108.256H284.035V104.7H285.1V108.256H290.883L290.9 104.7H291.949L291.931 108.256H293.346V109.387H291.931L291.914 118.204ZM306.027 111.434C306.027 110.597 305.874 109.825 305.573 109.118C305.281 108.4 304.885 107.789 304.385 107.286C303.895 106.772 303.33 106.37 302.69 106.083C302.049 105.796 301.38 105.652 300.681 105.652C299.889 105.652 299.161 105.82 298.497 106.155C297.845 106.478 297.286 106.909 296.82 107.448C296.353 107.987 295.987 108.604 295.719 109.297C295.462 109.991 295.335 110.705 295.335 111.434C295.335 112.2 295.469 112.931 295.737 113.625C296.004 114.319 296.371 114.936 296.838 115.475C297.314 116.002 297.88 116.42 298.532 116.732C299.184 117.043 299.9 117.199 300.681 117.199C301.415 117.199 302.107 117.049 302.76 116.75C303.411 116.438 303.977 116.025 304.454 115.511C304.931 114.983 305.31 114.373 305.59 113.679C305.881 112.972 306.027 112.224 306.027 111.434ZM307.075 111.434C307.075 112.332 306.918 113.201 306.603 114.038C306.289 114.864 305.846 115.6 305.276 116.247C304.716 116.882 304.04 117.39 303.249 117.773C302.468 118.157 301.612 118.348 300.681 118.348C299.807 118.348 298.98 118.168 298.2 117.809C297.432 117.439 296.755 116.941 296.174 116.319C295.591 115.697 295.131 114.966 294.794 114.128C294.455 113.29 294.287 112.393 294.287 111.434C294.287 110.489 294.455 109.596 294.794 108.759C295.131 107.908 295.585 107.172 296.156 106.55C296.738 105.928 297.414 105.437 298.183 105.077C298.963 104.707 299.795 104.521 300.681 104.521C301.531 104.521 302.341 104.694 303.109 105.042C303.889 105.389 304.57 105.874 305.153 106.496C305.747 107.118 306.213 107.854 306.551 108.705C306.9 109.542 307.075 110.453 307.075 111.434ZM310.704 117.055C310.704 117.151 310.691 117.235 310.669 117.306C310.645 117.378 310.621 117.45 310.599 117.522C310.564 117.582 310.529 117.641 310.494 117.701C310.459 117.749 310.424 117.803 310.389 117.863L309.166 119.659L308.328 118.976L309.009 117.989C308.717 117.762 308.572 117.45 308.572 117.055C308.572 116.732 308.671 116.456 308.869 116.229C309.079 116.002 309.335 115.888 309.638 115.888C309.929 115.888 310.18 116.002 310.389 116.229C310.599 116.456 310.704 116.732 310.704 117.055ZM322.405 118.204H321.357V105.796H317.618V104.664H326.126V105.796H322.405V118.204ZM333 106.532L332.214 108.256H333.804L333 106.532ZM339.447 117.935L338.521 118.438L334.328 109.387H331.673L327.515 118.42L326.571 117.899L330.519 109.387H327.008V108.256H331.026L333 104L334.974 108.256H338.957V109.387H335.498L339.447 117.935ZM341.265 118.15H340.199V104.233L346.418 108.148L352.673 104.233V118.15H351.624V106.209L346.418 109.459L341.265 106.209V118.15ZM360.057 104.664H368.845V105.796H361.088V118.204H360.057V104.664ZM383.332 117.019V119.982H382.267V118.132H370.701V120H369.636V117.037H370.754L376.414 104L382.179 117.019H383.332ZM371.907 117.037L381.044 117.019L376.397 106.64L371.907 117.037ZM385.213 111.434V109.387H383.763V108.256H385.213V104.664H394V105.796H386.243V108.256H394V109.387H386.243V111.434V117.055H394V118.204H385.213V111.434Z" fill="white" stroke="white" stroke-width="2" mask="url(#path-6-inside-1_95_59)"/>
</g>
<rect x="297" y="-18.83" width="235" height="235" transform="rotate(-45 297 -18.83)" fill="white"/>
<rect y="-18.83" width="235" height="235" transform="rotate(-45 0 -18.83)" fill="white"/>
<defs>
<clipPath id="clip0_95_59">
<rect width="297" height="297" fill="white" transform="translate(166 -1)"/>
</clipPath>
</defs>
</svg>
