<svg width="297" height="296" viewBox="0 0 297 296" fill="none" xmlns="http://www.w3.org/2000/svg">
<g clip-path="url(#clip0_58_2617)">
<path d="M148.5 -1.00021L0 147.5L148.5 296L297 147.5L148.5 -1.00021Z" fill="#B52222"/>
<path d="M51.3163 147.532C51.5182 148.116 51.6832 148.725 51.8093 149.361C51.9354 149.996 51.9989 150.656 51.9989 151.342C51.9989 152.664 51.759 153.959 51.2784 155.229C50.7977 156.474 50.1152 157.591 49.2307 158.582C48.3708 159.573 47.3223 160.373 46.0832 160.983C44.8697 161.592 43.5046 161.897 41.9877 161.897H28.5258V147.532V143.188H25.53V140.787H28.5258V133.166H41.9877C42.6198 133.166 43.2265 133.306 43.8079 133.585C44.3891 133.84 44.8953 134.195 45.3248 134.652C45.7542 135.11 46.0955 135.643 46.3487 136.253C46.6018 136.862 46.7279 137.51 46.7279 138.196C46.7279 139.466 46.3363 140.559 45.5523 141.473C46.8672 142.007 48.0172 142.807 49.0031 143.874C50.0147 144.915 50.7854 146.134 51.3163 147.532ZM44.4526 138.196C44.4526 137.384 44.1872 136.748 43.6563 136.291C43.1507 135.808 42.5945 135.567 41.9877 135.567H30.801V140.787H42.1773C42.8094 140.787 43.3403 140.533 43.77 140.025C44.2251 139.492 44.4526 138.882 44.4526 138.196ZM48.7756 147.532C48.1186 146.236 47.1573 145.195 45.8936 144.407C44.6299 143.595 43.1633 143.188 41.4948 143.188H30.801V147.532V159.459H41.9877C43.0495 159.459 44.0478 159.256 44.9835 158.849C45.9192 158.417 46.7279 157.832 47.4104 157.096C48.1186 156.36 48.6742 155.496 49.079 154.505C49.4838 153.514 49.6857 152.46 49.6857 151.342C49.6857 149.996 49.3823 148.725 48.7756 147.532ZM57.0737 147.532V143.188H53.9262V140.787H57.0737V133.166H76.1479V135.567H59.311V140.787H76.1479V143.188H59.311V147.532V159.459H76.1479V161.897H57.0737V147.532ZM78.4914 133.166H80.7667V159.497H97.6036V161.897H78.4914V133.166ZM99.6741 133.166H101.949V159.497H118.786V161.897H99.6741V133.166ZM133.826 137.129L132.119 140.787H135.57L133.826 137.129ZM147.819 161.326L145.809 162.393L136.708 143.188H130.944L121.919 162.354L119.871 161.249L128.441 143.188H120.818V140.787H129.541L133.826 131.756L138.111 140.787H146.757V143.188H139.248L147.819 161.326ZM178.453 147.532C178.756 146.948 178.984 146.325 179.136 145.665C179.313 145.004 179.401 144.305 179.401 143.569C179.401 142.273 179.161 141.13 178.681 140.139C178.226 139.123 177.632 138.285 176.898 137.625C176.191 136.939 175.381 136.431 174.471 136.1C173.587 135.745 172.715 135.567 171.855 135.567H164.271V147.532V151.571H171.855C173.296 151.571 174.585 151.202 175.723 150.466C176.886 149.729 177.796 148.751 178.453 147.532ZM180.956 147.532C180.628 148.421 180.173 149.259 179.591 150.047C179.035 150.809 178.365 151.495 177.581 152.104C176.798 152.688 175.926 153.159 174.964 153.514C174.004 153.845 172.968 154.01 171.855 154.01H164.271V161.897H161.995V147.532V133.166H171.855C173.018 133.166 174.181 133.407 175.344 133.89C176.532 134.373 177.594 135.059 178.529 135.948C179.49 136.837 180.261 137.929 180.842 139.225C181.424 140.521 181.714 141.969 181.714 143.569C181.714 144.229 181.652 144.89 181.525 145.55C181.399 146.211 181.209 146.872 180.956 147.532ZM186.313 161.935H184.038V133.281H186.313V161.935ZM198.969 147.532L208.563 135.605H193.092V133.204H213.455L201.965 147.532L192.333 159.497H215.199V161.897H187.402L198.969 147.532ZM227.15 147.532L236.744 135.605H221.273V133.204H241.636L230.146 147.532L220.514 159.497H243.38V161.897H215.584L227.15 147.532ZM258.328 137.129L256.622 140.787H260.072L258.328 137.129ZM272.321 161.326L270.311 162.393L261.21 143.188H255.446L246.421 162.354L244.373 161.249L252.943 143.188H245.321V140.787H254.043L258.328 131.756L262.613 140.787H271.259V143.188H263.751L272.321 161.326Z" fill="white"/>
<path d="M147.626 214.411L124 222.823V206L147.626 214.411Z" fill="white"/>
<path d="M150.776 214.411L174.403 222.823V206L150.776 214.411Z" fill="white"/>
<path d="M149.201 217.299C150.651 217.299 151.826 216.124 151.826 214.674C151.826 213.225 150.651 212.049 149.201 212.049C147.751 212.049 146.576 213.225 146.576 214.674C146.576 216.124 147.751 217.299 149.201 217.299Z" fill="white"/>
</g>
<defs>
<clipPath id="clip0_58_2617">
<rect width="297" height="297" fill="white" transform="translate(0 -1)"/>
</clipPath>
</defs>
</svg>
