<svg width="297" height="296" viewBox="0 0 297 296" fill="none" xmlns="http://www.w3.org/2000/svg">
<g clip-path="url(#clip0_58_2617)">
<path d="M148.5 -1.00021L0 147.5L148.5 296L297 147.5L148.5 -1.00021Z" fill="#B52222"/>
<path d="M51.3163 147.532C51.5182 148.116 51.6832 148.725 51.8093 149.361C51.9354 149.996 51.9989 150.656 51.9989 151.342C51.9989 152.664 51.759 153.959 51.2784 155.229C50.7977 156.474 50.1152 157.591 49.2307 158.582C48.3708 159.573 47.3223 160.373 46.0832 160.983C44.8697 161.592 43.5046 161.897 41.9877 161.897H28.5258V147.532V143.188H25.53V140.787H28.5258V133.166H41.9877C42.6198 133.166 43.2265 133.306 43.8079 133.585C44.3891 133.84 44.8953 134.195 45.3248 134.652C45.7542 135.11 46.0955 135.643 46.3487 136.253C46.6018 136.862 46.7279 137.51 46.7279 138.196C46.7279 139.466 46.3363 140.559 45.5523 141.473C46.8672 142.007 48.0172 142.807 49.0031 143.874C50.0147 144.915 50.7854 146.134 51.3163 147.532ZM44.4526 138.196C44.4526 137.384 44.1872 136.748 43.6563 136.291C43.1507 135.808 42.5945 135.567 41.9877 135.567H30.801V140.787H42.1773C42.8094 140.787 43.3403 140.533 43.77 140.025C44.2251 139.492 44.4526 138.882 44.4526 138.196ZM48.7756 147.532C48.1186 146.236 47.1573 145.195 45.8936 144.407C44.6299 143.595 43.1633 143.188 41.4948 143.188H30.801V147.532V159.459H41.9877C43.0495 159.459 44.0478 159.256 44.9835 158.849C45.9192 158.417 46.7279 157.832 47.4104 157.096C48.1186 156.36 48.6742 155.496 49.079 154.505C49.4838 153.514 49.6857 152.46 49.6857 151.342C49.6857 149.996 49.3823 148.725 48.7756 147.532ZM57.0737 147.532V143.188H53.9262V140.787H57.0737V133.166H76.1479V135.567H59.311V140.787H76.1479V143.188H59.311V147.532V159.459H76.1479V161.897H57.0737V147.532ZM78.4914 133.166H80.7667V159.497H97.6036V161.897H78.4914V133.166ZM99.6741 133.166H101.949V159.497H118.786V161.897H99.6741V133.166ZM133.826 137.129L132.119 140.787H135.57L133.826 137.129ZM147.819 161.326L145.809 162.393L136.708 143.188H130.944L121.919 162.354L119.871 161.249L128.441 143.188H120.818V140.787H129.541L133.826 131.756L138.111 140.787H146.757V143.188H139.248L147.819 161.326ZM178.453 147.532C178.756 146.948 178.984 146.325 179.136 145.665C179.313 145.004 179.401 144.305 179.401 143.569C179.401 142.273 179.161 141.13 178.681 140.139C178.226 139.123 177.632 138.285 176.898 137.625C176.191 136.939 175.381 136.431 174.471 136.1C173.587 135.745 172.715 135.567 171.855 135.567H164.271V147.532V151.571H171.855C173.296 151.571 174.585 151.202 175.723 150.466C176.886 149.729 177.796 148.751 178.453 147.532ZM180.956 147.532C180.628 148.421 180.173 149.259 179.591 150.047C179.035 150.809 178.365 151.495 177.581 152.104C176.798 152.688 175.926 153.159 174.964 153.514C174.004 153.845 172.968 154.01 171.855 154.01H164.271V161.897H161.995V147.532V133.166H171.855C173.018 133.166 174.181 133.407 175.344 133.89C176.532 134.373 177.594 135.059 178.529 135.948C179.49 136.837 180.261 137.929 180.842 139.225C181.424 140.521 181.714 141.969 181.714 143.569C181.714 144.229 181.652 144.89 181.525 145.55C181.399 146.211 181.209 146.872 180.956 147.532ZM186.313 161.935H184.038V133.281H186.313V161.935ZM198.969 147.532L208.563 135.605H193.092V133.204H213.455L201.965 147.532L192.333 159.497H215.199V161.897H187.402L198.969 147.532ZM227.15 147.532L236.744 135.605H221.273V133.204H241.636L230.146 147.532L220.514 159.497H243.38V161.897H215.584L227.15 147.532ZM258.328 137.129L256.622 140.787H260.072L258.328 137.129ZM272.321 161.326L270.311 162.393L261.21 143.188H255.446L246.421 162.354L244.373 161.249L252.943 143.188H245.321V140.787H254.043L258.328 131.756L262.613 140.787H271.259V143.188H263.751L272.321 161.326Z" fill="white"/>
<path d="M145.433 189.847L121.806 198.259V181.436L145.433 189.847Z" fill="white"/>
<path d="M148.583 189.847L172.209 198.259V181.436L148.583 189.847Z" fill="white"/>
<path d="M147.007 192.735C148.457 192.735 149.633 191.56 149.633 190.11C149.633 188.66 148.457 187.485 147.007 187.485C145.558 187.485 144.382 188.66 144.382 190.11C144.382 191.56 145.558 192.735 147.007 192.735Z" fill="white"/>
<path d="M92.9568 115.166C93.0284 115.372 93.0819 115.585 93.1172 115.808C93.162 116.022 93.184 116.254 93.184 116.503C93.184 117.038 93.0857 117.533 92.89 117.988C92.703 118.442 92.4443 118.835 92.1151 119.164C91.7944 119.494 91.4203 119.753 90.9927 119.94C90.5737 120.118 90.1328 120.207 89.6699 120.207H86.2093V115.166V113.642H85.1003V112.799H86.2093V110.125H89.6699C90.0173 110.125 90.3246 110.227 90.5919 110.433C90.8591 110.628 91.0548 110.874 91.1798 111.168C91.3134 111.462 91.3621 111.778 91.3267 112.117C91.2914 112.447 91.1483 112.751 90.8992 113.027C91.3267 113.196 91.7276 113.463 92.1017 113.829C92.4758 114.185 92.7612 114.631 92.9568 115.166ZM90.5518 111.89C90.5518 111.801 90.5337 111.703 90.4983 111.596C90.463 111.48 90.4096 111.377 90.338 111.288C90.2664 111.2 90.1729 111.123 90.0574 111.061C89.9505 110.999 89.8217 110.968 89.6699 110.968H87.011V112.799H89.7501C89.9725 112.799 90.1595 112.711 90.3113 112.532C90.4716 112.345 90.5518 112.131 90.5518 111.89ZM92.0616 115.166C91.8393 114.712 91.509 114.346 91.0729 114.07C90.6367 113.784 90.1109 113.642 89.4962 113.642H87.011V115.166V119.351H89.6699C90.0441 119.351 90.3962 119.28 90.7255 119.138C91.0548 118.986 91.3401 118.781 91.5806 118.522C91.8297 118.264 92.0263 117.961 92.1685 117.613C92.3203 117.266 92.3957 116.896 92.3957 116.503C92.3957 116.04 92.284 115.594 92.0616 115.166ZM93.8864 110.125H94.6747V112.519L99.8723 109.938L100.22 110.7L96.4384 112.585L102.317 119.846L101.716 120.394L95.6768 112.96L94.6747 113.455V120.194H93.8864V110.125ZM106.701 116.356L102.425 110.74L103.04 110.179L107.142 115.594L110.309 109.991L111.003 110.419L105.378 120.341L104.764 119.793L106.701 116.356ZM111.29 115.166C111.29 114.471 111.415 113.82 111.664 113.214C111.914 112.599 112.252 112.064 112.679 111.609C113.116 111.146 113.624 110.785 114.202 110.526C114.782 110.259 115.401 110.125 116.06 110.125H119.32V110.981H116.06C115.535 110.981 115.031 111.088 114.55 111.302C114.078 111.507 113.655 111.797 113.28 112.171C112.916 112.545 112.626 112.991 112.412 113.508C112.198 114.016 112.091 114.569 112.091 115.166C112.091 115.746 112.194 116.289 112.399 116.798C112.612 117.306 112.898 117.752 113.254 118.135C113.619 118.509 114.042 118.808 114.523 119.031C115.004 119.245 115.517 119.351 116.06 119.351H119.32V120.194H116.06C115.472 120.194 114.889 120.078 114.309 119.846C113.74 119.606 113.232 119.266 112.786 118.83C112.341 118.394 111.981 117.867 111.704 117.252C111.428 116.628 111.29 115.933 111.29 115.166ZM127.864 120.207H127.063L127.076 113.642H122.654L122.627 120.207H121.825L121.838 115.166V113.642H119.874V112.799H121.838V110.152H122.654V112.799H127.076L127.089 110.152H127.891L127.878 112.799H128.96V113.642H127.878L127.864 120.207ZM138.659 115.166C138.659 114.543 138.542 113.968 138.311 113.441C138.088 112.906 137.785 112.452 137.403 112.077C137.028 111.694 136.596 111.395 136.107 111.181C135.616 110.968 135.104 110.861 134.57 110.861C133.964 110.861 133.408 110.986 132.9 111.235C132.401 111.476 131.973 111.797 131.617 112.198C131.26 112.599 130.98 113.058 130.775 113.575C130.579 114.092 130.481 114.623 130.481 115.166C130.481 115.736 130.583 116.281 130.789 116.798C130.993 117.314 131.274 117.774 131.63 118.175C131.995 118.567 132.427 118.879 132.927 119.111C133.425 119.343 133.973 119.458 134.57 119.458C135.131 119.458 135.661 119.347 136.16 119.124C136.658 118.892 137.09 118.585 137.456 118.202C137.821 117.809 138.111 117.354 138.325 116.838C138.547 116.311 138.659 115.755 138.659 115.166ZM139.46 115.166C139.46 115.835 139.34 116.481 139.099 117.105C138.859 117.72 138.52 118.268 138.084 118.75C137.656 119.223 137.139 119.601 136.534 119.886C135.937 120.172 135.282 120.314 134.57 120.314C133.902 120.314 133.269 120.181 132.673 119.913C132.085 119.637 131.567 119.266 131.123 118.803C130.677 118.34 130.325 117.796 130.067 117.172C129.809 116.548 129.68 115.88 129.68 115.166C129.68 114.462 129.809 113.798 130.067 113.174C130.325 112.541 130.672 111.992 131.109 111.529C131.554 111.066 132.071 110.7 132.659 110.433C133.256 110.157 133.892 110.018 134.57 110.018C135.22 110.018 135.839 110.147 136.427 110.406C137.024 110.665 137.545 111.026 137.99 111.489C138.445 111.952 138.801 112.5 139.059 113.134C139.327 113.757 139.46 114.436 139.46 115.166ZM142.236 119.351C142.236 119.423 142.226 119.485 142.209 119.539C142.191 119.592 142.173 119.646 142.155 119.699C142.129 119.744 142.102 119.788 142.075 119.833C142.049 119.868 142.022 119.908 141.995 119.953L141.06 121.29L140.418 120.782L140.94 120.047C140.716 119.878 140.606 119.646 140.606 119.351C140.606 119.111 140.681 118.905 140.833 118.736C140.993 118.567 141.189 118.482 141.421 118.482C141.643 118.482 141.835 118.567 141.995 118.736C142.155 118.905 142.236 119.111 142.236 119.351ZM151.185 120.207H150.383V110.968H147.524V110.125H154.031V110.968H151.185V120.207ZM159.289 111.516L158.687 112.799H159.903L159.289 111.516ZM164.219 120.007L163.511 120.381L160.304 113.642H158.273L155.093 120.368L154.372 119.98L157.391 113.642H154.706V112.799H157.779L159.289 109.63L160.798 112.799H163.845V113.642H161.199L164.219 120.007ZM165.609 120.167H164.794V109.804L169.551 112.719L174.334 109.804V120.167H173.533V111.275L169.551 113.695L165.609 111.275V120.167ZM179.983 110.125H186.703V110.968H180.771V120.207H179.983V110.125ZM197.784 119.325V121.531H196.969V120.154H188.123V121.544H187.308V119.338H188.163L192.493 109.63L196.902 119.325H197.784ZM189.045 119.338L196.033 119.325L192.479 111.596L189.045 119.338ZM199.222 115.166V113.642H198.113V112.799H199.222V110.125H205.943V110.968H200.01V112.799H205.943V113.642H200.01V115.166V119.351H205.943V120.207H199.222V115.166Z" fill="white"/>
</g>
<defs>
<clipPath id="clip0_58_2617">
<rect width="297" height="297" fill="white" transform="translate(0 -1)"/>
</clipPath>
</defs>
</svg>
